<svg id="edtH7JwDMPK1" xmlns="http://www.w3.org/2000/svg" xmlns:xlink="http://www.w3.org/1999/xlink" viewBox="0 0 1170 2080" shape-rendering="geometricPrecision" text-rendering="geometricPrecision" project-id="40f126cfa22f498f85ad12dd28afc598" export-id="2b3577944088476abdd8e591953224d0" cached="false"><ellipse rx="496.978216" ry="177.231202" transform="matrix(.981768 0.190084-.190084 0.981768 774.953658 0)" fill="#ff821f" stroke-width="0"/><ellipse rx="163.24813" ry="163.24813" transform="matrix(.603635 0 0 0.603635 0 1718.998492)" fill="#424449" stroke-width="0"/><ellipse rx="163.24813" ry="163.24813" transform="matrix(.146262 0 0 0.146262 122.419283 1817.540777)" fill="#ff831e" stroke-width="0"/><ellipse rx="163.24813" ry="163.24813" transform="matrix(.146262 0 0 0.146262 992.570949 1097.477868)" fill="#ff831e" stroke-width="0"/><ellipse rx="163.24813" ry="163.24813" transform="matrix(.146262 0 0 0.146262 194.434332 1097.592114)" fill="#ff831e" stroke-width="0"/><ellipse rx="163.24813" ry="163.24813" transform="matrix(.146262 0 0 0.146262 1121.081359 268.467616)" fill="#424449" stroke-width="0"/><ellipse rx="163.24813" ry="163.24813" transform="matrix(.146262 0 0 0.146262 74.665287 674.079242)" fill="#424449" stroke-width="0"/><ellipse rx="163.24813" ry="163.24813" transform="matrix(.603635 0 0 0.603635 0 539.450181)" fill="#424449" stroke-width="0"/><ellipse rx="148.270494" ry="148.270494" transform="matrix(1 0.000385-.000385 1 1130.253755 1245.805474)" fill="#434448" stroke-width="0"/><ellipse rx="148.270494" ry="148.270494" transform="matrix(.816123 0 0 0.816123 976.197401 2118.862872)" fill="#d2dbed" stroke-width="0"/><ellipse rx="148.270494" ry="148.270494" transform="matrix(.816123 0 0 0.816123 1164.718441 1352.728275)" fill="#d2dbed" stroke-width="0"/><ellipse rx="148.270494" ry="148.270494" transform="matrix(.455344 0 0 0.455344 1164.718441 1768.726701)" fill="#fe831f" stroke-width="0"/><ellipse rx="148.270494" ry="148.270494" transform="translate(28.168318 1231.721315)" fill="#fe831f" stroke-width="0"/><ellipse rx="148.270494" ry="148.270494" transform="translate(1164.718441 773.98615)" fill="#d2dbed" stroke-width="0"/></svg>
